# xmcd
#
# Track frame offsets:
#   150
#   14693
#   30074
#   47873
#   64240
#   85522
#   105999
#   120885
#   135780
#   151039
#   171150
#   189217
#   207907
#
# Disc length: 3112 seconds
#
# Revision: 0
# Processed by: cddbd v1.5.1PL0 Copyright (c) Steve Scherf et al.
# Submitted via: Media_Universe 3.0
#
DISCID=8c0c260d
DTITLE=Robin and Linda Williams - Devil Of A Dream
DYEAR=1900
DGENRE=Country
TTITLE0=Things I've Learned
TTITLE1=Five Rooms
TTITLE2=Green Summertime
TTITLE3=Rolling And Rambling (The Death Of Hank Williams)
TTITLE4=Men With Guns
TTITLE5=The Genius
TTITLE6=I Wonder If I Care As Much
TTITLE7=Walking Like A Man
TTITLE8=While I'm Waiting For You
TTITLE9=So, It's Like This, Man
TTITLE10=Falls From The Sky
TTITLE11=At The Crossroads Again
TTITLE12=Letter That I Wrote
EXTD=
EXTT0=
EXTT1=
EXTT2=
EXTT3=
EXTT4=
EXTT5=
EXTT6=
EXTT7=
EXTT8=
EXTT9=
EXTT10=
EXTT11=
EXTT12=
PLAYORDER=
